# xmcd
#
# Track frame offsets: 
#        150
#        19809
#        55901
#        99515
#        125000
#        156588
#        178085
#        207599
#        249927
#        276312
#
# Disc length: 4450 seconds
#
# Revision: 0
# Processed by: cddbd v1.5.2PL0 Copyright (c) Steve Scherf et al.
# Submitted via: ExactAudioCopyFreeDBPlugin 1.0
#
DISCID=9411600a
DTITLE=Larry Garner and The Norman Beaker Band - Good Night In Vienna
DYEAR=2013
DGENRE=Blues
TTITLE0=Miss Boss
TTITLE1=Honey Hush
TTITLE2=Champagne and Reefer
TTITLE3=Can't Be Satisfied
TTITLE4=Funk It Up (Buster)
TTITLE5=Dreaming Again
TTITLE6=When The Fat Lady Sings
TTITLE7=Keep On singing The Blues
TTITLE8=Driving Wheel
TTITLE9=Mannish Boy
EXTD=
EXTT0=
EXTT1=
EXTT2=
EXTT3=
EXTT4=
EXTT5=
EXTT6=
EXTT7=
EXTT8=
EXTT9=
PLAYORDER=
